<mxfile host="app.diagrams.net" modified="2024-01-17T18:10:25.295Z" agent="Mozilla/5.0 (Macintosh; Intel Mac OS X 10_15_7) AppleWebKit/605.1.15 (KHTML, like Gecko) Version/17.2.1 Safari/605.1.15" version="22.1.18" etag="r_Ic6PzmpgXQ3mN9sYPo" type="github">
  <diagram name="Page-1" id="j_0085F2BV3FiobqfDqT">
    <mxGraphModel>
      <root>
        <mxCell id="0" />
        <mxCell id="1" parent="0" />
      </root>
    </mxGraphModel>
  </diagram>
</mxfile>
